<svg xmlns="http://www.w3.org/2000/svg" viewBox="0 0 60 60">
    <g fill="currentColor">
        <path d="M59 22a1 1 0 0 1-1-1V1a1 1 0 1 1 2 0v20a1 1 0 0 1-1 1z"/>
        <path d="M59 2H39a1 1 0 1 1 0-2h20a1 1 0 1 1 0 2z"/>
        <path d="M35 26a.999.999 0 0 1-.707-1.707l24-24a.999.999 0 1 1 1.414 1.414l-24 24A.997.997 0 0 1 35 26zM1 60a1 1 0 0 1-1-1V39a1 1 0 1 1 2 0v20a1 1 0 0 1-1 1z"/>
        <path d="M21 60H1a1 1 0 1 1 0-2h20a1 1 0 1 1 0 2z"/>
        <path d="M1 60a.999.999 0 0 1-.707-1.707l24-24a.999.999 0 1 1 1.414 1.414l-24 24A.997.997 0 0 1 1 60z"/>
    </g>
</svg>