<svg width="542px" height="20px" viewBox="0 0 542 20" version="1.1" xmlns="http://www.w3.org/2000/svg"
     xmlns:xlink="http://www.w3.org/1999/xlink">
    <g id="Page-1" stroke="none" stroke-width="1" fill="currentColor" fill-rule="evenodd">
        <g id="Artboard" transform="translate(-11.000000, -11.000000)" fill="currentColor">
            <g id="Group" transform="translate(11.000000, 11.000000)">
                <path d="M4.9921875,33.8359375 L4.9921875,57 L0.1875,57 L0.1875,0.125 L19.5625,0.125 C25.4739879,0.125 30.14191,1.63540156 33.5664062,4.65625 C36.9909025,7.67709844 38.703125,11.8307027 38.703125,17.1171875 C38.703125,22.4557559 37.0560061,26.5768084 33.7617188,29.4804688 C30.4674314,32.3841291 25.6953438,33.8359375 19.4453125,33.8359375 L4.9921875,33.8359375 Z M4.9921875,29.7734375 L19.5625,29.7734375 C24.2239816,29.7734375 27.7786336,28.6666777 30.2265625,26.453125 C32.6744914,24.2395723 33.8984375,21.1536656 33.8984375,17.1953125 C33.8984375,13.2630012 32.6810018,10.1315221 30.2460938,7.80078125 C27.8111857,5.47004043 24.3541891,4.27864609 19.875,4.2265625 L4.9921875,4.2265625 L4.9921875,29.7734375 Z M100.757812,41.0625 L74.9375,41.0625 L69.078125,57 L64.0390625,57 L85.5625,0.125 L90.1328125,0.125 L111.65625,57 L106.65625,57 L100.757812,41.0625 Z M76.421875,36.9609375 L99.234375,36.9609375 L87.828125,5.984375 L76.421875,36.9609375 Z M167.265625,33.328125 L150.742188,33.328125 L150.742188,57 L145.898438,57 L145.898438,0.125 L164.375,0.125 C170.442739,0.125 175.182275,1.59633945 178.59375,4.5390625 C182.005225,7.48178555 183.710938,11.5963277 183.710938,16.8828125 C183.710938,20.5286641 182.64324,23.7447777 180.507812,26.53125 C178.372385,29.3177223 175.50783,31.2447863 171.914062,32.3125 L186.132812,56.4921875 L186.132812,57 L181.015625,57 L167.265625,33.328125 Z M150.742188,29.2265625 L165.46875,29.2265625 C169.505229,29.2265625 172.747384,28.0807406 175.195312,25.7890625 C177.643241,23.4973844 178.867188,20.5286641 178.867188,16.8828125 C178.867188,12.8723758 177.591159,9.76042773 175.039062,7.546875 C172.486966,5.33332227 168.906273,4.2265625 164.296875,4.2265625 L150.742188,4.2265625 L150.742188,29.2265625 Z M253.5,41.0625 L227.679688,41.0625 L221.820312,57 L216.78125,57 L238.304688,0.125 L242.875,0.125 L264.398438,57 L259.398438,57 L253.5,41.0625 Z M229.164062,36.9609375 L251.976562,36.9609375 L240.570312,5.984375 L229.164062,36.9609375 Z M303.601562,52.9375 L331.6875,52.9375 L331.6875,57 L298.757812,57 L298.757812,0.125 L303.601562,0.125 L303.601562,52.9375 Z M371.75,52.9375 L399.835938,52.9375 L399.835938,57 L366.90625,57 L366.90625,0.125 L371.75,0.125 L371.75,52.9375 Z M466.460938,29.734375 L439.859375,29.734375 L439.859375,52.9375 L470.445312,52.9375 L470.445312,57 L435.054688,57 L435.054688,0.125 L470.25,0.125 L470.25,4.2265625 L439.859375,4.2265625 L439.859375,25.671875 L466.460938,25.671875 L466.460938,29.734375 Z M511.40625,52.9375 L539.492188,52.9375 L539.492188,57 L506.5625,57 L506.5625,0.125 L511.40625,0.125 L511.40625,52.9375 Z"
                      id="PARALLEL"></path>
            </g>
        </g>
    </g>
</svg>