<svg width="540" height="98" xmlns="http://www.w3.org/2000/svg">
    <g fill-rule="evenodd" fill="currentColor">
      <path d="M4.992 33.836V57H.188V.125h19.375c5.911 0 10.579 1.51 14.003 4.531 3.425 3.021 5.137 7.175 5.137 12.461 0 5.339-1.647 9.46-4.941 12.363-3.295 2.904-8.067 4.356-14.317 4.356H4.992zm0-4.063h14.57c4.662 0 8.217-1.106 10.665-3.32 2.447-2.213 3.671-5.3 3.671-9.258 0-3.932-1.217-7.063-3.652-9.394-2.435-2.331-5.892-3.522-10.371-3.574H4.992v25.546zm95.766 11.29h-25.82L69.078 57H64.04L85.562.125h4.57L111.657 57h-5l-5.898-15.938-.001.001zM76.422 36.96h22.812L87.828 5.984 76.422 36.961v-.001zm90.844-3.633h-16.524V57h-4.844V.125h18.477c6.068 0 10.807 1.471 14.219 4.414 3.411 2.943 5.117 7.057 5.117 12.344 0 3.646-1.068 6.862-3.203 9.648-2.136 2.787-5 4.714-8.594 5.782l14.219 24.18V57h-5.117l-13.75-23.672v-.001zm-16.524-4.101h14.727c4.036 0 7.278-1.146 9.726-3.438 2.448-2.292 3.672-5.26 3.672-8.906 0-4.01-1.276-7.123-3.828-9.336-2.552-2.214-6.133-3.32-10.742-3.32h-13.555v25zM253.5 41.062h-25.82L221.82 57h-5.039L238.305.125h4.57L264.398 57h-5L253.5 41.062zm-24.336-4.101h22.813L240.57 5.984l-11.406 30.977zm74.438 15.977h28.086V57h-32.93V.125h4.844v52.813zm68.148 0h28.086V57h-32.93V.125h4.844v52.813zm94.71-23.204h-26.6v23.203h30.585V57h-35.39V.125h35.195v4.102h-30.39v21.445h26.6v4.062zm44.946 23.203h28.086V57h-32.93V.125h4.844v52.813-.001z"/>
      <path d="M12.473 86.775H2.497v8.702h11.47V97H.695V75.672h13.199v1.538H2.497v8.042h9.976v1.523zM36.84 97h-1.802l-12.26-18.252V97H20.96V75.672h1.816l12.276 18.266V75.672h1.787V97zm15.05-2.637l.117.454.132-.454 6.71-18.691h1.977L52.886 97h-1.728l-7.94-21.328h1.963l6.71 18.691zM69.358 97h-1.802V75.672h1.802V97zm21.056-5.244c0-1.182-.415-2.117-1.245-2.805-.83-.689-2.348-1.343-4.556-1.963-2.207-.62-3.818-1.297-4.834-2.029-1.445-1.035-2.167-2.393-2.167-4.072 0-1.631.67-2.957 2.014-3.977 1.342-1.02 3.059-1.531 5.149-1.531 1.416 0 2.683.273 3.8.82 1.119.547 1.986 1.309 2.601 2.285.615.977.923 2.066.923 3.267h-1.817c0-1.455-.498-2.625-1.494-3.508-.996-.884-2.334-1.326-4.013-1.326-1.631 0-2.93.364-3.897 1.091-.967.728-1.45 1.678-1.45 2.85 0 1.083.434 1.967 1.304 2.65.869.684 2.26 1.287 4.174 1.81 1.915.522 3.365 1.064 4.351 1.626.986.561 1.729 1.233 2.227 2.014.498.781.747 1.704.747 2.769 0 1.68-.672 3.027-2.014 4.043-1.343 1.015-3.113 1.523-5.31 1.523-1.504 0-2.884-.269-4.139-.806-1.255-.537-2.207-1.289-2.856-2.256-.65-.966-.974-2.075-.974-3.325h1.801c0 1.504.562 2.69 1.685 3.56 1.123.869 2.617 1.304 4.482 1.304 1.66 0 2.994-.367 4-1.1 1.005-.732 1.508-1.703 1.508-2.914zM101.51 97h-1.802V75.672h1.802V97zm24.748-9.507c0 1.963-.34 3.687-1.018 5.171-.68 1.484-1.648 2.627-2.908 3.428-1.26.8-2.715 1.201-4.365 1.201-2.49 0-4.502-.891-6.036-2.673-1.533-1.783-2.3-4.187-2.3-7.215v-2.197c0-1.943.345-3.665 1.033-5.164.689-1.499 1.663-2.65 2.923-3.457 1.26-.805 2.71-1.208 4.35-1.208 1.64 0 3.089.395 4.344 1.186 1.254.791 2.224 1.91 2.907 3.355.684 1.445 1.04 3.12 1.07 5.024v2.55zm-1.802-2.314c0-2.569-.581-4.58-1.743-6.035-1.162-1.456-2.754-2.183-4.776-2.183-1.982 0-3.562.73-4.738 2.19-1.177 1.46-1.766 3.498-1.766 6.116v2.226c0 2.53.586 4.534 1.758 6.013 1.172 1.48 2.764 2.22 4.776 2.22 2.04 0 3.632-.73 4.775-2.19 1.143-1.46 1.714-3.494 1.714-6.101v-2.256zM149.878 97h-1.802l-12.261-18.252V97h-1.816V75.672h1.816l12.275 18.266V75.672h1.788V97zm10.817 0h-1.802V75.672h1.802V97zm24.865 0h-1.802l-12.26-18.252V97h-1.817V75.672h1.816l12.276 18.266V75.672h1.787V97zm24.015-2.534c-.625.888-1.604 1.582-2.937 2.08-1.333.498-2.825.747-4.475.747-1.67 0-3.154-.4-4.453-1.201-1.299-.801-2.305-1.934-3.018-3.399-.713-1.464-1.074-3.144-1.084-5.039V84.96c0-2.959.747-5.295 2.242-7.01 1.494-1.713 3.5-2.57 6.02-2.57 2.197 0 3.965.559 5.303 1.677 1.338 1.118 2.134 2.659 2.388 4.622h-1.802c-.264-1.563-.901-2.747-1.912-3.553-1.01-.805-2.331-1.208-3.962-1.208-1.992 0-3.57.708-4.732 2.124-1.162 1.416-1.743 3.413-1.743 5.991v2.52c0 1.62.276 3.054.828 4.3.552 1.244 1.343 2.209 2.373 2.892 1.03.684 2.214 1.026 3.552 1.026 1.553 0 2.886-.245 4-.733.722-.322 1.259-.698 1.61-1.128v-5.508h-5.727v-1.523h7.53v7.588zm25.238-.103l.117.454.132-.454 6.71-18.691h1.977L235.809 97h-1.728l-7.94-21.328h1.963l6.71 18.691zM252.281 97h-1.802V75.672h1.802V97zm16.955-8.877h-6.197V97h-1.816V75.672h6.929c2.275 0 4.052.552 5.332 1.655 1.279 1.104 1.919 2.647 1.919 4.63 0 1.366-.4 2.572-1.202 3.617-.8 1.045-1.875 1.768-3.222 2.168l5.332 9.068V97h-1.92l-5.155-8.877zm-6.197-1.538h5.523c1.513 0 2.73-.43 3.647-1.29.918-.858 1.377-1.972 1.377-3.339 0-1.504-.478-2.67-1.435-3.5-.957-.831-2.3-1.246-4.029-1.246h-5.083v9.375zm33.772-9.375h-7.31V97h-1.802V77.21h-7.295v-1.538h16.407v1.538zm21.334-1.538v14.56c-.01 1.436-.327 2.686-.952 3.75-.625 1.065-1.506 1.883-2.644 2.454-1.138.571-2.444.857-3.918.857-2.246 0-4.046-.613-5.398-1.838-1.353-1.226-2.054-2.923-2.102-5.09V75.671h1.787V90.1c0 1.796.512 3.19 1.538 4.182 1.025.99 2.417 1.487 4.175 1.487 1.757 0 3.147-.499 4.167-1.495 1.02-.996 1.53-2.382 1.53-4.16V75.672h1.817zm19.416 15.351h-9.682L325.68 97h-1.89l8.072-21.328h1.714L341.648 97h-1.875l-2.212-5.977zm-9.126-1.538h8.555l-4.277-11.616-4.278 11.616zm21.364 5.992h10.532V97h-12.348V75.672h1.816v19.805zm35.653-7.354h-6.196V97h-1.817V75.672h6.93c2.275 0 4.052.552 5.331 1.655 1.28 1.104 1.92 2.647 1.92 4.63 0 1.366-.401 2.572-1.202 3.617-.8 1.045-1.875 1.768-3.223 2.168l5.332 9.068V97h-1.919l-5.156-8.877zm-6.196-1.538h5.522c1.514 0 2.73-.43 3.648-1.29.918-.858 1.377-1.972 1.377-3.339 0-1.504-.479-2.67-1.436-3.5-.957-.831-2.3-1.246-4.028-1.246h-5.083v9.375zm32.248.19h-9.976v8.702h11.47V97h-13.272V75.672h13.199v1.538h-11.397v8.042h9.976v1.523zm20.001 4.248h-9.682L419.626 97h-1.89l8.071-21.328h1.714L435.592 97h-1.875l-2.212-5.977zm-9.126-1.538h8.555l-4.277-11.616-4.278 11.616zm21.365 5.992h10.532V97h-12.349V75.672h1.817v19.805zM463.13 97h-1.802V75.672h1.802V97zm23.034-19.79h-7.31V97h-1.801V77.21h-7.295v-1.538h16.406v1.538zm8.84 19.79h-1.802V75.672h1.802V97zm20.763-10.225h-9.975v8.702h11.47V97H503.99V75.672h13.198v1.538h-11.396v8.042h9.975v1.523zm20.559 4.98c0-1.18-.415-2.116-1.246-2.804-.83-.689-2.348-1.343-4.555-1.963-2.207-.62-3.819-1.297-4.834-2.029-1.445-1.035-2.168-2.393-2.168-4.072 0-1.631.671-2.957 2.014-3.977 1.343-1.02 3.06-1.531 5.149-1.531 1.416 0 2.683.273 3.801.82 1.118.547 1.985 1.309 2.6 2.285.616.977.923 2.066.923 3.267h-1.816c0-1.455-.498-2.625-1.494-3.508-.996-.884-2.334-1.326-4.014-1.326-1.63 0-2.93.364-3.897 1.091-.966.728-1.45 1.678-1.45 2.85 0 1.083.435 1.967 1.304 2.65.87.684 2.26 1.287 4.175 1.81 1.914.522 3.364 1.064 4.35 1.626.987.561 1.729 1.233 2.227 2.014.498.781.747 1.704.747 2.769 0 1.68-.671 3.027-2.014 4.043-1.343 1.015-3.113 1.523-5.31 1.523-1.504 0-2.884-.269-4.138-.806-1.255-.537-2.207-1.289-2.857-2.256-.65-.966-.974-2.075-.974-3.325h1.802c0 1.504.561 2.69 1.684 3.56 1.123.869 2.618 1.304 4.483 1.304 1.66 0 2.993-.367 3.999-1.1 1.006-.732 1.509-1.703 1.509-2.914z" fill-rule="nonzero"/>
    </g>
  </svg>