<svg width="542" height="115" viewBox="0 0 542 115" xmlns="http://www.w3.org/2000/svg"><path d="M4.992 33.836V57H.188V.125h19.375c5.911 0 10.579 1.51 14.003 4.531 3.425 3.021 5.137 7.175 5.137 12.461 0 5.339-1.647 9.46-4.941 12.363-3.295 2.904-8.067 4.356-14.317 4.356H4.992zm0-4.063h14.57c4.662 0 8.217-1.106 10.665-3.32 2.447-2.213 3.671-5.3 3.671-9.258 0-3.932-1.217-7.063-3.652-9.394-2.435-2.331-5.892-3.522-10.371-3.574H4.992v25.546zm95.766 11.29h-25.82L69.078 57H64.04L85.562.125h4.57L111.657 57h-5l-5.898-15.938zM76.422 36.96h22.812L87.828 5.984 76.422 36.961zm90.844-3.633h-16.524V57h-4.844V.125h18.477c6.068 0 10.807 1.471 14.219 4.414 3.411 2.943 5.117 7.057 5.117 12.344 0 3.646-1.068 6.862-3.203 9.648-2.136 2.787-5 4.714-8.594 5.782l14.219 24.18V57h-5.117l-13.75-23.672zm-16.524-4.101h14.727c4.036 0 7.278-1.146 9.726-3.438 2.448-2.292 3.672-5.26 3.672-8.906 0-4.01-1.276-7.123-3.828-9.336-2.552-2.214-6.133-3.32-10.742-3.32h-13.555v25zM253.5 41.062h-25.82L221.82 57h-5.039L238.305.125h4.57L264.398 57h-5L253.5 41.062zm-24.336-4.101h22.813L240.57 5.984l-11.406 30.977zm74.438 15.977h28.086V57h-32.93V.125h4.844v52.813zm68.148 0h28.086V57h-32.93V.125h4.844v52.813zm94.71-23.204h-26.6v23.203h30.585V57h-35.39V.125h35.195v4.102h-30.39v21.445h26.6v4.062zm44.946 23.203h28.086V57h-32.93V.125h4.844v52.813zM5.903 99.384H7.72c1.006 0 1.884-.178 2.636-.535.752-.356 1.326-.845 1.722-1.465.395-.62.593-1.335.593-2.146 0-1.367-.386-2.436-1.157-3.208-.772-.771-1.88-1.157-3.326-1.157-1.367 0-2.487.403-3.361 1.209-.874.805-1.311 1.867-1.311 3.186H1.758a5.7 5.7 0 0 1 .835-3.025 5.61 5.61 0 0 1 2.314-2.117c.987-.498 2.08-.747 3.281-.747 1.934 0 3.458.527 4.57 1.582 1.114 1.055 1.67 2.5 1.67 4.336 0 1.025-.324 1.97-.973 2.834-.65.865-1.54 1.512-2.674 1.941 1.328.371 2.334 1.009 3.018 1.912.683.903 1.025 1.98 1.025 3.23 0 1.826-.595 3.296-1.787 4.409-1.191 1.113-2.783 1.67-4.775 1.67-1.27 0-2.434-.254-3.494-.762s-1.88-1.218-2.46-2.131c-.582-.913-.872-1.975-.872-3.186h1.757c0 1.357.474 2.463 1.421 3.318.948.854 2.163 1.281 3.648 1.281 1.513 0 2.693-.388 3.537-1.164.845-.776 1.267-1.902 1.267-3.377 0-1.425-.456-2.514-1.37-3.266-.912-.752-2.258-1.128-4.035-1.128H5.903v-1.494zM21.421 111V89.672h5.962c1.748 0 3.316.398 4.702 1.194 1.387.796 2.469 1.936 3.245 3.42.776 1.485 1.165 3.174 1.165 5.068v1.963c0 1.905-.386 3.594-1.158 5.069-.771 1.474-1.858 2.612-3.259 3.413-1.401.8-3.01 1.201-4.827 1.201h-5.83zm1.802-19.79v18.267h4.043c2.246 0 4.048-.745 5.405-2.234 1.358-1.49 2.036-3.504 2.036-6.043v-1.875c0-2.451-.669-4.414-2.006-5.888-1.338-1.475-3.101-2.217-5.289-2.227h-4.189zm40.85 13.813h-9.682L52.194 111h-1.89l8.071-21.328h1.714L68.16 111h-1.875l-2.212-5.977zm-9.126-1.538h8.555L59.225 91.87l-4.278 11.616zM89.274 111h-1.802l-12.26-18.252V111h-1.817V89.672h1.817l12.275 18.266V89.672h1.787V111zm9.717 0H97.19V89.672h1.802V111zm10.274-21.328l7.866 18.823 7.896-18.823h2.402V111h-1.802v-9.287l.147-9.522-7.94 18.809h-1.391l-7.91-18.735.146 9.39V111h-1.802V89.672h2.388zm37.447 15.351h-9.683L134.832 111h-1.89l8.071-21.328h1.714L150.8 111h-1.875l-2.212-5.977zm-9.126-1.538h8.554l-4.277-11.616-4.277 11.616zm31.03-12.275h-7.31V111h-1.8V91.21h-7.296v-1.538h16.406v1.538zm7.74 19.79h-1.802V89.672h1.802V111zm23.648-9.507c0 1.963-.34 3.687-1.018 5.171-.679 1.484-1.648 2.627-2.908 3.428-1.26.8-2.715 1.201-4.365 1.201-2.49 0-4.502-.891-6.035-2.673-1.533-1.783-2.3-4.187-2.3-7.215v-2.197c0-1.943.344-3.665 1.033-5.164.688-1.499 1.662-2.65 2.922-3.457 1.26-.805 2.71-1.208 4.35-1.208 1.641 0 3.089.395 4.344 1.186 1.255.791 2.224 1.91 2.908 3.355.683 1.445 1.04 3.12 1.069 5.024v2.55zm-1.802-2.314c0-2.569-.58-4.58-1.743-6.035-1.162-1.456-2.754-2.183-4.775-2.183-1.983 0-3.562.73-4.74 2.19-1.176 1.46-1.764 3.498-1.764 6.116v2.226c0 2.53.586 4.534 1.757 6.013 1.172 1.48 2.764 2.22 4.776 2.22 2.04 0 3.633-.73 4.775-2.19 1.143-1.46 1.714-3.494 1.714-6.101v-2.256zM222.524 111h-1.802l-12.26-18.252V111h-1.817V89.672h1.816l12.276 18.266V89.672h1.787V111zm19.59-5.244c0-1.182-.415-2.117-1.245-2.805-.83-.689-2.349-1.343-4.556-1.963-2.207-.62-3.818-1.297-4.834-2.029-1.445-1.035-2.168-2.393-2.168-4.072 0-1.631.672-2.957 2.014-3.977 1.343-1.02 3.06-1.531 5.15-1.531 1.415 0 2.683.273 3.8.82 1.119.547 1.986 1.309 2.6 2.285.616.977.924 2.066.924 3.267h-1.817c0-1.455-.498-2.625-1.494-3.508-.996-.884-2.334-1.326-4.014-1.326-1.63 0-2.93.364-3.896 1.091-.967.728-1.45 1.678-1.45 2.85 0 1.083.434 1.967 1.303 2.65.87.684 2.261 1.287 4.175 1.81 1.914.522 3.365 1.064 4.35 1.626.987.561 1.73 1.233 2.227 2.014.498.781.747 1.704.747 2.769 0 1.68-.67 3.027-2.014 4.043-1.342 1.015-3.112 1.523-5.31 1.523-1.504 0-2.883-.269-4.138-.806s-2.207-1.289-2.856-2.256c-.65-.966-.975-2.075-.975-3.325h1.802c0 1.504.562 2.69 1.685 3.56 1.123.869 2.617 1.304 4.482 1.304 1.66 0 2.993-.367 4-1.1 1.005-.732 1.508-1.703 1.508-2.914zm18.585 9.2h-1.48V89.671h1.48v25.283zm23.155-6.593l.117.454.132-.454 6.709-18.691h1.977L284.85 111h-1.729l-7.939-21.328h1.963l6.709 18.691zM300.22 111h-1.801V89.672h1.801V111zm15.855-8.877h-6.196V111h-1.816V89.672h6.928c2.276 0 4.053.552 5.332 1.655 1.28 1.104 1.92 2.647 1.92 4.63 0 1.366-.401 2.572-1.202 3.617-.8 1.045-1.875 1.768-3.222 2.168l5.332 9.068v.19h-1.92l-5.156-8.877zm-6.196-1.538h5.523c1.513 0 2.729-.43 3.647-1.29.918-.858 1.377-1.972 1.377-3.339 0-1.504-.479-2.67-1.436-3.5-.957-.831-2.3-1.246-4.028-1.246h-5.083v9.375zm32.671-9.375h-7.31V111h-1.801V91.21h-7.295v-1.538h16.406v1.538zm20.235-1.538v14.56c-.01 1.436-.327 2.686-.952 3.75-.625 1.065-1.506 1.883-2.644 2.454-1.138.571-2.444.857-3.919.857-2.246 0-4.045-.613-5.397-1.838-1.353-1.226-2.054-2.923-2.103-5.09V89.671h1.788V104.1c0 1.796.512 3.19 1.538 4.182 1.025.99 2.417 1.487 4.174 1.487 1.758 0 3.147-.499 4.168-1.495 1.02-.996 1.53-2.382 1.53-4.16V89.672h1.817zm18.316 15.351h-9.683L369.222 111h-1.89l8.072-21.328h1.714l8.07 21.328h-1.874l-2.212-5.977zm-9.126-1.538h8.555l-4.278-11.616-4.277 11.616zm20.264 5.992h10.532V111h-12.348V89.672h1.816v19.805zm33.453-7.354h-6.196V111h-1.817V89.672h6.929c2.275 0 4.053.552 5.332 1.655 1.28 1.104 1.919 2.647 1.919 4.63 0 1.366-.4 2.572-1.201 3.617s-1.875 1.768-3.223 2.168l5.332 9.068v.19h-1.919l-5.156-8.877zm-6.196-1.538h5.522c1.514 0 2.73-.43 3.648-1.29.918-.858 1.377-1.972 1.377-3.339 0-1.504-.479-2.67-1.436-3.5-.957-.831-2.3-1.246-4.028-1.246h-5.083v9.375zm31.148.19h-9.976v8.702h11.47V111h-13.272V89.672h13.198v1.538H440.67v8.042h9.976v1.523zm18.901 4.248h-9.682L457.666 111h-1.89l8.072-21.328h1.714L473.633 111h-1.875l-2.212-5.977zm-9.126-1.538h8.555l-4.277-11.616-4.278 11.616zm20.264 5.992h10.533V111h-12.349V89.672h1.816v19.805zM498.971 111h-1.802V89.672h1.802V111zm21.934-19.79h-7.31V111h-1.801V91.21h-7.295v-1.538h16.406v1.538zm11.797 10.093l6.519-11.631h2.08l-7.705 13.3V111h-1.802v-8.027l-7.69-13.301h2.138l6.46 11.63z" fill="currentColor" fill-rule="evenodd"/></svg>