<?xml version="1.0" encoding="utf-8"?><svg xmlns="http://www.w3.org/2000/svg" xmlns:xlink="http://www.w3.org/1999/xlink"><symbol viewBox="0 0 129 129" fill="#fff" id="anchor" xmlns="http://www.w3.org/2000/svg"><path d="M121.3 34.6c-1.6-1.6-4.2-1.6-5.8 0l-51 51.1-51.1-51.1c-1.6-1.6-4.2-1.6-5.8 0-1.6 1.6-1.6 4.2 0 5.8l53.9 53.9c.8.8 1.8 1.2 2.9 1.2 1 0 2.1-.4 2.9-1.2l53.9-53.9c1.7-1.6 1.7-4.2.1-5.8z"/></symbol><symbol viewBox="0 0 60 60" id="expand" xmlns="http://www.w3.org/2000/svg"><g fill="currentColor"><path d="M59 22a1 1 0 0 1-1-1V1a1 1 0 1 1 2 0v20a1 1 0 0 1-1 1z"/><path d="M59 2H39a1 1 0 1 1 0-2h20a1 1 0 1 1 0 2z"/><path d="M35 26a.999.999 0 0 1-.707-1.707l24-24a.999.999 0 1 1 1.414 1.414l-24 24A.997.997 0 0 1 35 26zM1 60a1 1 0 0 1-1-1V39a1 1 0 1 1 2 0v20a1 1 0 0 1-1 1z"/><path d="M21 60H1a1 1 0 1 1 0-2h20a1 1 0 1 1 0 2z"/><path d="M1 60a.999.999 0 0 1-.707-1.707l24-24a.999.999 0 1 1 1.414 1.414l-24 24A.997.997 0 0 1 1 60z"/></g></symbol><symbol viewBox="0 0 96.124 96.123" id="facebook" xmlns="http://www.w3.org/2000/svg"><path fill="currentColor" d="M72.089.02L59.624 0C45.62 0 36.57 9.285 36.57 23.656v10.907H24.037a1.96 1.96 0 0 0-1.96 1.961v15.803a1.96 1.96 0 0 0 1.96 1.96H36.57v39.876a1.96 1.96 0 0 0 1.96 1.96h16.352a1.96 1.96 0 0 0 1.96-1.96V54.287h14.654a1.96 1.96 0 0 0 1.96-1.96l.006-15.803a1.963 1.963 0 0 0-1.961-1.961H56.842v-9.246c0-4.444 1.059-6.7 6.848-6.7l8.397-.003a1.96 1.96 0 0 0 1.959-1.96V1.98A1.96 1.96 0 0 0 72.089.02z"/></symbol><symbol viewBox="0 0 169.063 169.063" id="instagram" xmlns="http://www.w3.org/2000/svg"><g fill="currentColor"><path d="M122.406 0H46.654C20.929 0 0 20.93 0 46.655v75.752c0 25.726 20.929 46.655 46.654 46.655h75.752c25.727 0 46.656-20.93 46.656-46.655V46.655C169.063 20.93 148.133 0 122.406 0zm31.657 122.407c0 17.455-14.201 31.655-31.656 31.655H46.654C29.2 154.063 15 139.862 15 122.407V46.655C15 29.201 29.2 15 46.654 15h75.752c17.455 0 31.656 14.201 31.656 31.655v75.752z"/><path d="M84.531 40.97c-24.021 0-43.563 19.542-43.563 43.563 0 24.02 19.542 43.561 43.563 43.561s43.563-19.541 43.563-43.561c0-24.021-19.542-43.563-43.563-43.563zm0 72.123c-15.749 0-28.563-12.812-28.563-28.561 0-15.75 12.813-28.563 28.563-28.563s28.563 12.813 28.563 28.563c0 15.749-12.814 28.561-28.563 28.561zm45.39-84.842c-2.89 0-5.729 1.17-7.77 3.22a11.053 11.053 0 0 0-3.23 7.78c0 2.891 1.18 5.73 3.23 7.78 2.04 2.04 4.88 3.22 7.77 3.22 2.9 0 5.73-1.18 7.78-3.22 2.05-2.05 3.22-4.89 3.22-7.78 0-2.9-1.17-5.74-3.22-7.78-2.04-2.05-4.88-3.22-7.78-3.22z"/></g></symbol><symbol viewBox="0 0 438.536 438.535" id="linkedin" xmlns="http://www.w3.org/2000/svg"><path d="M5.424 145.895H99.64v282.932H5.424zm403.418 25.844c-19.791-21.604-45.967-32.408-78.512-32.408-11.991 0-22.891 1.475-32.695 4.427-9.801 2.95-18.079 7.089-24.838 12.419-6.755 5.33-12.135 10.278-16.129 14.844-3.798 4.337-7.512 9.389-11.136 15.104v-40.232h-93.935l.288 13.706c.193 9.139.288 37.307.288 84.508 0 47.205-.19 108.777-.572 184.722h93.931V270.942c0-9.705 1.041-17.412 3.139-23.127 4-9.712 10.037-17.843 18.131-24.407 8.093-6.572 18.13-9.855 30.125-9.855 16.364 0 28.407 5.662 36.117 16.987 7.707 11.324 11.561 26.98 11.561 46.966V428.82h93.931V266.664c-.007-41.688-9.897-73.328-29.694-94.925zM53.103 9.708c-15.796 0-28.595 4.619-38.4 13.848C4.899 32.787 0 44.441 0 58.529 0 72.42 4.758 84.034 14.275 93.358c9.514 9.325 22.078 13.99 37.685 13.99h.571c15.99 0 28.887-4.661 38.688-13.99 9.801-9.324 14.606-20.934 14.417-34.829-.19-14.087-5.047-25.742-14.561-34.973C81.562 14.323 68.9 9.708 53.103 9.708z" fill="currentColor"/></symbol><symbol viewBox="0 0 542 115" id="logo" xmlns="http://www.w3.org/2000/svg"><g fill="currentColor" fill-rule="evenodd"><path d="M4.992 33.836V57H.188V.125h19.375c5.911 0 10.579 1.51 14.003 4.531 3.425 3.021 5.137 7.175 5.137 12.461 0 5.339-1.647 9.46-4.941 12.363-3.295 2.904-8.067 4.356-14.317 4.356H4.992zm0-4.063h14.57c4.662 0 8.217-1.106 10.665-3.32 2.447-2.213 3.671-5.3 3.671-9.258 0-3.932-1.217-7.063-3.652-9.394-2.435-2.331-5.892-3.522-10.371-3.574H4.992v25.546zm95.766 11.29h-25.82L69.078 57H64.04L85.562.125h4.57L111.657 57h-5l-5.898-15.938zM76.422 36.96h22.812L87.828 5.984 76.422 36.961zm90.844-3.633h-16.524V57h-4.844V.125h18.477c6.068 0 10.807 1.471 14.219 4.414 3.411 2.943 5.117 7.057 5.117 12.344 0 3.646-1.068 6.862-3.203 9.648-2.136 2.787-5 4.714-8.594 5.782l14.219 24.18V57h-5.117l-13.75-23.672zm-16.524-4.101h14.727c4.036 0 7.278-1.146 9.726-3.438 2.448-2.292 3.672-5.26 3.672-8.906 0-4.01-1.276-7.123-3.828-9.336-2.552-2.214-6.133-3.32-10.742-3.32h-13.555v25zM253.5 41.062h-25.82L221.82 57h-5.039L238.305.125h4.57L264.398 57h-5L253.5 41.062zm-24.336-4.101h22.813L240.57 5.984l-11.406 30.977zm74.438 15.977h28.086V57h-32.93V.125h4.844v52.813zm68.148 0h28.086V57h-32.93V.125h4.844v52.813zm94.71-23.204h-26.6v23.203h30.585V57h-35.39V.125h35.195v4.102h-30.39v21.445h26.6v4.062zm44.946 23.203h28.086V57h-32.93V.125h4.844v52.813zM5.903 99.384H7.72c1.006 0 1.884-.178 2.636-.535.752-.356 1.326-.845 1.722-1.465.395-.62.593-1.335.593-2.146 0-1.367-.386-2.436-1.157-3.208-.772-.771-1.88-1.157-3.326-1.157-1.367 0-2.487.403-3.361 1.209-.874.805-1.311 1.867-1.311 3.186H1.758a5.7 5.7 0 0 1 .835-3.025 5.61 5.61 0 0 1 2.314-2.117c.987-.498 2.08-.747 3.281-.747 1.934 0 3.458.527 4.57 1.582 1.114 1.055 1.67 2.5 1.67 4.336 0 1.025-.324 1.97-.973 2.834-.65.865-1.54 1.512-2.674 1.941 1.328.371 2.334 1.009 3.018 1.912.683.903 1.025 1.98 1.025 3.23 0 1.826-.595 3.296-1.787 4.409-1.191 1.113-2.783 1.67-4.775 1.67-1.27 0-2.434-.254-3.494-.762s-1.88-1.218-2.46-2.131c-.582-.913-.872-1.975-.872-3.186h1.757c0 1.357.474 2.463 1.421 3.318.948.854 2.163 1.281 3.648 1.281 1.513 0 2.693-.388 3.537-1.164.845-.776 1.267-1.902 1.267-3.377 0-1.425-.456-2.514-1.37-3.266-.912-.752-2.258-1.128-4.035-1.128H5.903v-1.494zM21.421 111V89.672h5.962c1.748 0 3.316.398 4.702 1.194 1.387.796 2.469 1.936 3.245 3.42.776 1.485 1.165 3.174 1.165 5.068v1.963c0 1.905-.386 3.594-1.158 5.069-.771 1.474-1.858 2.612-3.259 3.413-1.401.8-3.01 1.201-4.827 1.201h-5.83zm1.802-19.79v18.267h4.043c2.246 0 4.048-.745 5.405-2.234 1.358-1.49 2.036-3.504 2.036-6.043v-1.875c0-2.451-.669-4.414-2.006-5.888-1.338-1.475-3.101-2.217-5.289-2.227h-4.189zm40.85 13.813h-9.682L52.194 111h-1.89l8.071-21.328h1.714L68.16 111h-1.875l-2.212-5.977zm-9.126-1.538h8.555L59.225 91.87l-4.278 11.616zM89.274 111h-1.802l-12.26-18.252V111h-1.817V89.672h1.817l12.275 18.266V89.672h1.787V111zm9.717 0H97.19V89.672h1.802V111zm10.274-21.328l7.866 18.823 7.896-18.823h2.402V111h-1.802v-9.287l.147-9.522-7.94 18.809h-1.391l-7.91-18.735.146 9.39V111h-1.802V89.672h2.388zm37.447 15.351h-9.683L134.832 111h-1.89l8.071-21.328h1.714L150.8 111h-1.875l-2.212-5.977zm-9.126-1.538h8.554l-4.277-11.616-4.277 11.616zm31.03-12.275h-7.31V111h-1.8V91.21h-7.296v-1.538h16.406v1.538zm7.74 19.79h-1.802V89.672h1.802V111zm23.648-9.507c0 1.963-.34 3.687-1.018 5.171-.679 1.484-1.648 2.627-2.908 3.428-1.26.8-2.715 1.201-4.365 1.201-2.49 0-4.502-.891-6.035-2.673-1.533-1.783-2.3-4.187-2.3-7.215v-2.197c0-1.943.344-3.665 1.033-5.164.688-1.499 1.662-2.65 2.922-3.457 1.26-.805 2.71-1.208 4.35-1.208 1.641 0 3.089.395 4.344 1.186 1.255.791 2.224 1.91 2.908 3.355.683 1.445 1.04 3.12 1.069 5.024v2.55zm-1.802-2.314c0-2.569-.58-4.58-1.743-6.035-1.162-1.456-2.754-2.183-4.775-2.183-1.983 0-3.562.73-4.74 2.19-1.176 1.46-1.764 3.498-1.764 6.116v2.226c0 2.53.586 4.534 1.757 6.013 1.172 1.48 2.764 2.22 4.776 2.22 2.04 0 3.633-.73 4.775-2.19 1.143-1.46 1.714-3.494 1.714-6.101v-2.256zM222.524 111h-1.802l-12.26-18.252V111h-1.817V89.672h1.816l12.276 18.266V89.672h1.787V111zm19.59-5.244c0-1.182-.415-2.117-1.245-2.805-.83-.689-2.349-1.343-4.556-1.963-2.207-.62-3.818-1.297-4.834-2.029-1.445-1.035-2.168-2.393-2.168-4.072 0-1.631.672-2.957 2.014-3.977 1.343-1.02 3.06-1.531 5.15-1.531 1.415 0 2.683.273 3.8.82 1.119.547 1.986 1.309 2.6 2.285.616.977.924 2.066.924 3.267h-1.817c0-1.455-.498-2.625-1.494-3.508-.996-.884-2.334-1.326-4.014-1.326-1.63 0-2.93.364-3.896 1.091-.967.728-1.45 1.678-1.45 2.85 0 1.083.434 1.967 1.303 2.65.87.684 2.261 1.287 4.175 1.81 1.914.522 3.365 1.064 4.35 1.626.987.561 1.73 1.233 2.227 2.014.498.781.747 1.704.747 2.769 0 1.68-.67 3.027-2.014 4.043-1.342 1.015-3.112 1.523-5.31 1.523-1.504 0-2.883-.269-4.138-.806s-2.207-1.289-2.856-2.256c-.65-.966-.975-2.075-.975-3.325h1.802c0 1.504.562 2.69 1.685 3.56 1.123.869 2.617 1.304 4.482 1.304 1.66 0 2.993-.367 4-1.1 1.005-.732 1.508-1.703 1.508-2.914zm18.585 9.2h-1.48V89.671h1.48v25.283zm23.155-6.593l.117.454.132-.454 6.709-18.691h1.977L284.85 111h-1.729l-7.939-21.328h1.963l6.709 18.691zM300.22 111h-1.801V89.672h1.801V111zm15.855-8.877h-6.196V111h-1.816V89.672h6.928c2.276 0 4.053.552 5.332 1.655 1.28 1.104 1.92 2.647 1.92 4.63 0 1.366-.401 2.572-1.202 3.617-.8 1.045-1.875 1.768-3.222 2.168l5.332 9.068v.19h-1.92l-5.156-8.877zm-6.196-1.538h5.523c1.513 0 2.729-.43 3.647-1.29.918-.858 1.377-1.972 1.377-3.339 0-1.504-.479-2.67-1.436-3.5-.957-.831-2.3-1.246-4.028-1.246h-5.083v9.375zm32.671-9.375h-7.31V111h-1.801V91.21h-7.295v-1.538h16.406v1.538zm20.235-1.538v14.56c-.01 1.436-.327 2.686-.952 3.75-.625 1.065-1.506 1.883-2.644 2.454-1.138.571-2.444.857-3.919.857-2.246 0-4.045-.613-5.397-1.838-1.353-1.226-2.054-2.923-2.103-5.09V89.671h1.788V104.1c0 1.796.512 3.19 1.538 4.182 1.025.99 2.417 1.487 4.174 1.487 1.758 0 3.147-.499 4.168-1.495 1.02-.996 1.53-2.382 1.53-4.16V89.672h1.817zm18.316 15.351h-9.683L369.222 111h-1.89l8.072-21.328h1.714l8.07 21.328h-1.874l-2.212-5.977zm-9.126-1.538h8.555l-4.278-11.616-4.277 11.616zm20.264 5.992h10.532V111h-12.348V89.672h1.816v19.805zm33.453-7.354h-6.196V111h-1.817V89.672h6.929c2.275 0 4.053.552 5.332 1.655 1.28 1.104 1.919 2.647 1.919 4.63 0 1.366-.4 2.572-1.201 3.617s-1.875 1.768-3.223 2.168l5.332 9.068v.19h-1.919l-5.156-8.877zm-6.196-1.538h5.522c1.514 0 2.73-.43 3.648-1.29.918-.858 1.377-1.972 1.377-3.339 0-1.504-.479-2.67-1.436-3.5-.957-.831-2.3-1.246-4.028-1.246h-5.083v9.375zm31.148.19h-9.976v8.702h11.47V111h-13.272V89.672h13.198v1.538H440.67v8.042h9.976v1.523zm18.901 4.248h-9.682L457.666 111h-1.89l8.072-21.328h1.714L473.633 111h-1.875l-2.212-5.977zm-9.126-1.538h8.555l-4.277-11.616-4.278 11.616zm20.264 5.992h10.533V111h-12.349V89.672h1.816v19.805zM498.971 111h-1.802V89.672h1.802V111zm21.934-19.79h-7.31V111h-1.801V91.21h-7.295v-1.538h16.406v1.538zm11.797 10.093l6.519-11.631h2.08l-7.705 13.3V111h-1.802v-8.027l-7.69-13.301h2.138l6.46 11.63z"/></g></symbol><symbol viewBox="0 0 511.626 511.626" id="mail" xmlns="http://www.w3.org/2000/svg"><g fill="currentColor"><path d="M49.106 178.729c6.472 4.567 25.981 18.131 58.528 40.685 32.548 22.554 57.482 39.92 74.803 52.099 1.903 1.335 5.946 4.237 12.131 8.71 6.186 4.476 11.326 8.093 15.416 10.852 4.093 2.758 9.041 5.852 14.849 9.277 5.806 3.422 11.279 5.996 16.418 7.7 5.14 1.718 9.898 2.569 14.275 2.569h.575c4.377 0 9.137-.852 14.277-2.569 5.137-1.704 10.615-4.281 16.416-7.7 5.804-3.429 10.752-6.52 14.845-9.277 4.093-2.759 9.229-6.376 15.417-10.852 6.184-4.477 10.232-7.375 12.135-8.71 17.508-12.179 62.051-43.11 133.615-92.79 13.894-9.703 25.502-21.411 34.827-35.116 9.332-13.699 13.993-28.07 13.993-43.105 0-12.564-4.523-23.319-13.565-32.264-9.041-8.947-19.749-13.418-32.117-13.418H45.679c-14.655 0-25.933 4.948-33.832 14.844C3.949 79.562 0 91.934 0 106.779c0 11.991 5.236 24.985 15.703 38.974 10.466 13.99 21.604 24.983 33.403 32.976z"/><path d="M483.072 209.275c-62.424 42.251-109.824 75.087-142.177 98.501-10.849 7.991-19.65 14.229-26.409 18.699-6.759 4.473-15.748 9.041-26.98 13.702-11.228 4.668-21.692 6.995-31.401 6.995h-.578c-9.707 0-20.177-2.327-31.405-6.995-11.228-4.661-20.223-9.229-26.98-13.702-6.755-4.47-15.559-10.708-26.407-18.699-25.697-18.842-72.995-51.68-141.896-98.501C17.987 202.047 8.375 193.762 0 184.437v226.685c0 12.57 4.471 23.319 13.418 32.265 8.945 8.949 19.701 13.422 32.264 13.422h420.266c12.56 0 23.315-4.473 32.261-13.422 8.949-8.949 13.418-19.694 13.418-32.265V184.437c-8.186 9.132-17.7 17.417-28.555 24.838z"/></g></symbol><symbol viewBox="0 0 348.077 348.077" id="phone" xmlns="http://www.w3.org/2000/svg"><path d="M340.273 275.083l-53.755-53.761c-10.707-10.664-28.438-10.34-39.518.744l-27.082 27.076a792.327 792.327 0 0 1-5.344-2.973c-17.102-9.476-40.509-22.464-65.14-47.113-24.704-24.701-37.704-48.144-47.209-65.257-1.003-1.813-1.964-3.561-2.913-5.221l18.176-18.149 8.936-8.947c11.097-11.1 11.403-28.826.721-39.521L73.39 8.194c-10.682-10.68-28.421-10.356-39.518.744l-15.15 15.237.414.411c-5.08 6.482-9.325 13.958-12.484 22.02C3.74 54.28 1.927 61.603 1.098 68.941-6 127.785 20.89 181.564 93.866 254.541c100.875 100.868 182.167 93.248 185.674 92.876 7.638-.913 14.958-2.738 22.397-5.627 7.992-3.122 15.463-7.361 21.941-12.43l.331.294 15.348-15.029c11.074-11.098 11.393-28.83.716-39.542z" fill="currentColor"/></symbol><symbol viewBox="0 0 28 35" id="play" xmlns="http://www.w3.org/2000/svg"><path d="M1 3.812V31.8a2 2 0 0 0 3.064 1.693L25.28 20.159a2 2 0 0 0 .073-3.339L4.137 2.166A2 2 0 0 0 1 3.812z" stroke="currentColor" stroke-width="2" fill="none"/></symbol><symbol viewBox="0 0 129 129" id="search" xmlns="http://www.w3.org/2000/svg"><path fill="currentColor" d="M51.6 96.7c11 0 21-3.9 28.8-10.5l35 35c.8.8 1.8 1.2 2.9 1.2s2.1-.4 2.9-1.2c1.6-1.6 1.6-4.2 0-5.8l-35-35c6.5-7.8 10.5-17.9 10.5-28.8 0-24.9-20.2-45.1-45.1-45.1-24.8 0-45.1 20.3-45.1 45.1 0 24.9 20.3 45.1 45.1 45.1zm0-82c20.4 0 36.9 16.6 36.9 36.9C88.5 72 72 88.5 51.6 88.5S14.7 71.9 14.7 51.6c0-20.3 16.6-36.9 36.9-36.9z"/></symbol><symbol viewBox="0 0 310 310" id="youtube" xmlns="http://www.w3.org/2000/svg"><path fill="currentColor" d="M297.917 64.645c-11.19-13.302-31.85-18.728-71.306-18.728H83.386c-40.359 0-61.369 5.776-72.517 19.938C0 79.663 0 100.008 0 128.166v53.669c0 54.551 12.896 82.248 83.386 82.248h143.226c34.216 0 53.176-4.788 65.442-16.527C304.633 235.518 310 215.863 310 181.835v-53.669c0-29.695-.841-50.16-12.083-63.521zm-98.896 97.765l-65.038 33.991a9.997 9.997 0 0 1-14.632-8.863v-67.764a10 10 0 0 1 14.609-8.874l65.038 33.772a10 10 0 0 1 .023 17.738z"/></symbol></svg>